<?xml version="1.0" encoding="UTF-8" standalone="no"?>
<svg
   width="3840"
   height="2160"
   version="1.1"
   viewBox="0 0 1016 571.5"
   id="svg24"
   sodipodi:docname="blue-16x9.svg"
   inkscape:version="1.2.2 (b0a8486541, 2022-12-01)"
   xmlns:inkscape="http://www.inkscape.org/namespaces/inkscape"
   xmlns:sodipodi="http://sodipodi.sourceforge.net/DTD/sodipodi-0.dtd"
   xmlns="http://www.w3.org/2000/svg"
   xmlns:svg="http://www.w3.org/2000/svg">
  <sodipodi:namedview
     id="namedview26"
     pagecolor="#ffffff"
     bordercolor="#000000"
     borderopacity="0.25"
     inkscape:showpageshadow="2"
     inkscape:pageopacity="0.0"
     inkscape:pagecheckerboard="0"
     inkscape:deskcolor="#d1d1d1"
     showgrid="false"
     inkscape:zoom="0.35338542"
     inkscape:cx="1866.2343"
     inkscape:cy="1080.9727"
     inkscape:window-width="1920"
     inkscape:window-height="1011"
     inkscape:window-x="0"
     inkscape:window-y="32"
     inkscape:window-maximized="1"
     inkscape:current-layer="svg24" />
  <defs
     id="defs10">
    <radialGradient
       id="a"
       cx="508.88"
       cy="275.85"
       r="508"
       gradientTransform="matrix(1.517 0 0 1.3139 -1279.3 -89.84)"
       gradientUnits="userSpaceOnUse">
      <stop
         stop-color="#316fd8"
         offset="0"
         id="stop2" />
      <stop
         stop-color="#23bac2"
         offset="1"
         id="stop4"
         style="stop-color:#000000;stop-opacity:1;" />
    </radialGradient>
    <filter
       id="b"
       x="-0.031331217"
       y="-0.042304053"
       width="1.0626624"
       height="1.0846081"
       color-interpolation-filters="sRGB">
      <feGaussianBlur
         stdDeviation="5.2271844"
         id="feGaussianBlur7" />
    </filter>
  </defs>
  <rect
     transform="scale(-1,1)"
     x="-1016"
     y="1e-5"
     width="1016"
     height="571.5"
     fill="url(#a)"
     style="fill:url(#a);paint-order:fill markers stroke"
     id="rect12" />
  <g
     transform="matrix(1.4134 0 -.55446 .73189 210.77 -878.82)"
     id="g18">
    <path
       d="m57.194 664.6 1.2e-5 1853.2h1.5343v-1853.2zm3.0691 0v1853.2h1.5348v-1853.2zm3.0691 0 5.31e-4 1853.2h1.5343l-2.3e-5 -1853.2zm3.0696 0 1.1e-5 1853.2h1.5348l1.2e-5 -1853.2zm3.0691 0v1853.2h1.5348v-1853.2zm3.0696 0 1.2e-5 1853.2h1.5342l1.1e-5 -1853.2zm3.0691 0v1853.2h1.5348l1.2e-5 -1853.2zm3.0696 0v1853.2h1.5343l-1.1e-5 -1853.2zm3.069 0 2.3e-5 1853.2h1.5348l-1.1e-5 -1853.2zm3.0691 0 1.1e-5 1853.2h1.5348v-1853.2zm3.0696 0 1.2e-5 1853.2h1.5348l-5.42e-4 -1853.2zm3.0691 0-1.2e-5 1853.2h1.5348v-1853.2zm3.0696 0-1.2e-5 1853.2h1.5343l-1.1e-5 -1853.2zm3.069 0 1.2e-5 1853.2h1.5348l-1.1e-5 -1853.2zm3.0691 0v1853.2h1.5348v-1853.2zm3.0696 0v1853.2h1.5348l-5.4e-4 -1853.2zm3.0691 0-1e-5 1853.2h1.5348l1e-5 -1853.2zm3.0696 0v1853.2h1.5343l-2e-5 -1853.2zm3.069 0 1e-5 1853.2h1.5348v-1853.2zm3.0691 0v1853.2h1.5348v-1853.2zm3.0696 0v1853.2h1.5343l-1e-5 -1853.2zm3.069 0 1e-5 1853.2h1.5348l1e-5 -1853.2zm3.0696 0-1e-5 1853.2h1.5343v-1853.2zm3.069 0 1e-5 1853.2h1.5348l-1e-5 -1853.2zm3.0691 0-1e-5 1853.2h1.5348v-1853.2zm3.0696 0-1e-5 1853.2h1.5348l-5.3e-4 -1853.2zm3.069 0 1e-5 1853.2h1.5348l-1e-5 -1853.2zm3.0696 0 1e-5 1853.2h1.5343v-1853.2zm3.069 0v1853.2h1.5348l-1e-5 -1853.2zm3.0691 0-1e-5 1853.2h1.5348l1e-5 -1853.2zm3.0696 0v1853.2h1.5348l-5.2e-4 -1853.2zm3.069 0 1e-5 1853.2h1.5348l-2e-5 -1853.2zm3.0696 0 1e-5 1853.2h1.5342v-1853.2zm3.0691 0v1853.2h1.5348v-1853.2zm3.069 0v1853.2h1.5348l1e-5 -1853.2zm3.0696 0v1853.2h1.5348l-5.1e-4 -1853.2zm3.069 0 1e-5 1853.2h1.5348l-1e-5 -1853.2zm3.0696 0 1e-5 1853.2h1.5342v-1853.2zm3.069 0v1853.2h1.5348v-1853.2zm3.0691 0 2e-5 1853.2h1.5348l-1e-5 -1853.2zm3.0696 0 1e-5 1853.2h1.5348l-5.3e-4 -1853.2zm3.069 0v1853.2h1.5348l-1e-5 -1853.2zm3.0696 0v1853.2h1.5343v-1853.2zm3.069 0v1853.2h1.5348l2e-5 -1853.2zm3.069 0 1e-5 1853.2h1.5348l-1e-5 -1853.2zm3.0696 0 1e-5 1853.2h1.5348l-5.5e-4 -1853.2zm3.0691 0v1853.2h1.5348v-1853.2zm3.0696 0 1e-5 1853.2h1.5342l1e-5 -1853.2zm3.0691 0v1853.2h1.5348l2e-5 -1853.2zm3.069 0 1e-5 1853.2h1.5348l-1e-5 -1853.2zm3.0696 0 1e-5 1853.2h1.5348l-5.4e-4 -1853.2zm3.0691 0-2e-5 1853.2h1.5348v-1853.2zm3.0696 0v1853.2h1.5343l1e-5 -1853.2zm3.0691 0-1e-5 1853.2h1.5348v-1853.2zm3.0691 0-2e-5 1853.2h1.5348l-2e-5 -1853.2zm3.0696 0 2e-5 1853.2h1.5348l-5.4e-4 -1853.2zm3.0691 0-1e-5 1853.2h1.5348v-1853.2zm3.0696 0-1e-5 1853.2h1.5343l-2e-5 -1853.2zm3.069 0 2e-5 1853.2h1.5348l1e-5 -1853.2zm3.0691 0-1e-5 1853.2h1.5348l1e-5 -1853.2zm3.0696 0v1853.2h1.5348l-5.3e-4 -1853.2zm3.069 0v1853.2h1.5348l2e-5 -1853.2zm3.0696 0v1853.2h1.5343l-1e-5 -1853.2zm3.069 0 2e-5 1853.2h1.5348l-2e-5 -1853.2zm3.0691 0v1853.2h1.5348l2e-5 -1853.2zm3.0696 0-1e-5 1853.2h1.5348l-5.4e-4 -1853.2zm3.069 0-1e-5 1853.2h1.5348v-1853.2zm3.0696 0-1e-5 1853.2h1.5343l-2e-5 -1853.2zm3.069 0 1e-5 1853.2h1.5348l-2e-5 -1853.2zm3.0691 0-1e-5 1853.2h1.5348v-1853.2zm3.0696 0-1e-5 1853.2h1.5348l-5.3e-4 -1853.2zm3.069 0v1853.2h1.5348l1e-5 -1853.2zm3.0696 0v1853.2h1.5343l-1e-5 -1853.2zm3.069 0 2e-5 1853.2h1.5348l-1e-5 -1853.2zm3.0691 0v1853.2h1.5348l2e-5 -1853.2zm3.0696 0v1853.2h1.5348l1e-5 -1853.2zm3.069 0 2e-5 1853.2h1.5348l-2e-5 -1853.2zm3.0696 0 2e-5 1853.2h1.5342l2e-5 -1853.2zm3.0691 0v1853.2h1.5348l1e-5 -1853.2zm3.069 0-1e-5 1853.2h1.5348v-1853.2zm3.0696 0-1e-5 1853.2h1.5348l-5.4e-4 -1853.2zm3.069 0 1e-5 1853.2h1.5348l-2e-5 -1853.2zm3.0696 0 1e-5 1853.2h1.5342v-1853.2zm3.0691 0-1e-5 1853.2h1.5348v-1853.2zm3.069 0-1e-5 1853.2h1.5348l1e-5 -1853.2zm3.0696 0v1853.2h1.5348l-5.3e-4 -1853.2zm3.069 0 2e-5 1853.2h1.5348l-1e-5 -1853.2zm3.0696 0 2e-5 1853.2h1.5342l2e-5 -1853.2zm3.0691 0v1853.2h1.5348l1e-5 -1853.2zm3.069 0v1853.2h1.5348l1e-5 -1853.2zm3.0696 0-2e-5 1853.2h1.5348l-5e-4 -1853.2zm3.0691 0v1853.2h1.5348l-2e-5 -1853.2zm3.0696 0 1e-5 1853.2h1.5343v-1853.2zm3.0691 0-1e-5 1853.2h1.5348v-1853.2zm3.069 0 1e-5 1853.2h1.5348l-2e-5 -1853.2zm3.0696 0 1e-5 1853.2h1.5348l1e-5 -1853.2zm3.0691 0-1e-5 1853.2h1.5348v-1853.2zm3.0696 0-1e-5 1853.2h1.5342l2e-5 -1853.2zm3.069 0v1853.2h1.5348l1e-5 -1853.2zm3.069 0 2e-5 1853.2h1.5348l-2e-5 -1853.2zm3.0696 0 2e-5 1853.2h1.5348l-2e-5 -1853.2zm3.0691 0v1853.2h1.5348l1e-5 -1853.2zm3.0696 0v1853.2h1.5342l1e-5 -1853.2zm3.069 0v1853.2h1.5348l1e-5 -1853.2zm3.069 0 2e-5 1853.2h1.5348l-2e-5 -1853.2zm3.0696 0 2e-5 1853.2h1.5348l-3e-5 -1853.2zm3.0691 0-1e-5 1853.2h1.5348v-1853.2zm3.0696 0-1e-5 1853.2h1.5343l-2e-5 -1853.2zm3.069 0-2e-5 1853.2h1.5348v-1853.2zm3.0691 0-1e-5 1853.2h1.5348l-2e-5 -1853.2zm3.0696 0 2e-5 1853.2h1.5348l-2e-5 -1853.2zm3.0691 0-2e-5 1853.2h1.5348l1e-5 -1853.2zm3.0696 0v1853.2h1.5343l-2e-5 -1853.2zm3.069 0 2e-5 1853.2h1.5348v-1853.2zm3.0691 0v1853.2h1.5348l1e-5 -1853.2zm3.0696 0v1853.2h1.5348l1e-5 -1853.2zm3.069 0v1853.2h1.5348v-1853.2zm3.0696 0v1853.2h1.5343l-2e-5 -1853.2zm3.069 0 1e-5 1853.2h1.5348l-2e-5 -1853.2zm3.0691 0v1853.2h1.5348l1e-5 -1853.2zm3.0696 0-1e-5 1853.2h1.5348v-1853.2zm3.069 0v1853.2h1.5348l-2e-5 -1853.2zm3.0696 0v1853.2h1.5343l-1e-5 -1853.2zm3.069 0 2e-5 1853.2h1.5348l-1e-5 -1853.2zm3.0691 0v1853.2h1.5348v-1853.2zm3.0696 0-1e-5 1853.2h1.5348v-1853.2zm3.069 0 1e-5 1853.2h1.5348v-1853.2zm3.0696 0 1e-5 1853.2h1.5343l1e-5 -1853.2zm3.0691 0-1e-5 1853.2h1.5348l-1e-5 -1853.2zm3.069 0v1853.2h1.5348v-1853.2zm3.0696 0v1853.2h1.5348l1e-5 -1853.2zm3.069 0 1e-5 1853.2h1.5348l-2e-5 -1853.2zm3.0696 0v1853.2h1.5343l1e-5 -1853.2zm3.0691 0-1e-5 1853.2h1.5348v-1853.2zm3.069 0v1853.2h1.5348v-1853.2zm3.0696 0v1853.2h1.5348v-1853.2zm3.069 0 1e-5 1853.2h1.5348l-1e-5 -1853.2zm3.0696 0 1e-5 1853.2h1.5343v-1853.2zm3.0691 0-1e-5 1853.2h1.5348l1e-5 -1853.2zm3.069 0 5.4e-4 1853.2h1.5342v-1853.2zm3.0696 0 1e-5 1853.2h1.5348v-1853.2zm3.069 0 1e-5 1853.2h1.5348l-1e-5 -1853.2zm3.0696 0 2e-5 1853.2h1.5343v-1853.2zm3.0691 0v1853.2h1.5348l1e-5 -1853.2zm3.069 0 1e-5 1853.2h1.5348l-2e-5 -1853.2zm3.0696 0 1e-5 1853.2h1.5348l-1e-5 -1853.2zm3.0691 0-1e-5 1853.2h1.5348l-2e-5 -1853.2zm3.0696 0 2e-5 1853.2h1.5342v-1853.2zm3.0691 0v1853.2h1.5348v-1853.2zm3.069 0v1853.2h1.5348l-1e-5 -1853.2zm3.0696 0v1853.2h1.5348l-1e-5 -1853.2zm3.0691 0-1e-5 1853.2h1.5348l1e-5 -1853.2zm3.0696 0-1e-5 1853.2h1.5342v-1853.2zm3.069 0 1e-5 1853.2h1.5348v-1853.2zm3.069 0 5.4e-4 1853.2h1.5343l-1e-5 -1853.2zm3.0696 0 2e-5 1853.2h1.5348v-1853.2zm3.0691 0v1853.2h1.5348l1e-5 -1853.2zm3.0696 0v1853.2h1.5343v-1853.2zm3.069 0v1853.2h1.5348l-1e-5 -1853.2zm3.069 0 5.4e-4 1853.2h1.5343l-2e-5 -1853.2zm3.0696 0 2e-5 1853.2h1.5348l-1e-5 -1853.2zm3.0691 0v1853.2h1.5348v-1853.2zm3.0696 0-1e-5 1853.2h1.5343l-1e-5 -1853.2zm3.069 0v1853.2h1.5348l-1e-5 -1853.2zm3.0691 0 5.2e-4 1853.2h1.5343l1e-5 -1853.2zm3.0696 0-1e-5 1853.2h1.5348l-2e-5 -1853.2zm3.069 0-1e-5 1853.2h1.5348v-1853.2zm3.0696 0v1853.2h1.5343l-1e-5 -1853.2zm3.069 0 2e-5 1853.2h1.5348v-1853.2zm3.0691 0 5.3e-4 1853.2h1.5343l1e-5 -1853.2zm3.0696 0-1e-5 1853.2h1.5348l1e-5 -1853.2zm3.069 0v1853.2h1.5348v-1853.2zm3.0696 0v1853.2h1.5343l-1e-5 -1853.2zm3.069 0 2e-5 1853.2h1.5348l-1e-5 -1853.2zm3.0691 0 5.3e-4 1853.2h1.5343v-1853.2zm3.0696 0-1e-5 1853.2h1.5348v-1853.2zm3.069 0v1853.2h1.5348l-1e-5 -1853.2zm3.0696 0v1853.2h1.5343l-1e-5 -1853.2zm3.069 0 3e-5 1853.2h1.5348l-2e-5 -1853.2zm3.0691 0 5.2e-4 1853.2h1.5343v-1853.2zm3.0696 0v1853.2h1.5348v-1853.2zm3.069 0 2e-5 1853.2h1.5348v-1853.2zm3.0696 0 1e-5 1853.2h1.5343l1e-5 -1853.2zm3.0691 0v1853.2h1.5348l-3e-5 -1853.2zm3.069 0 5.3e-4 1853.2h1.5343v-1853.2zm3.0696 0v1853.2h1.5348l1e-5 -1853.2zm3.069 0 2e-5 1853.2h1.5348l-1e-5 -1853.2zm3.0696 0 1e-5 1853.2h1.5343l1e-5 -1853.2zm3.0691 0-1e-5 1853.2h1.5348v-1853.2zm3.069 0 5.3e-4 1853.2h1.5343v-1853.2zm3.0696 0v1853.2h1.5348v-1853.2zm3.069 0 3e-5 1853.2h1.5348l-1e-5 -1853.2zm3.0696 0 1e-5 1853.2h1.5343v-1853.2zm3.0691 0-1e-5 1853.2h1.5348l1e-5 -1853.2zm3.069 0 5.5e-4 1853.2h1.5342v-1853.2zm3.0696 0 1e-5 1853.2h1.5348v-1853.2zm3.069 0 1e-5 1853.2h1.5348l-2e-5 -1853.2zm3.0696 0 1e-5 1853.2h1.5343v-1853.2zm3.0691 0v1853.2h1.5348l1e-5 -1853.2zm3.069 0 5.5e-4 1853.2h1.5342l-1e-5 -1853.2zm3.0696 0v1853.2h1.5348l-1e-5 -1853.2zm3.0691 0-1e-5 1853.2h1.5348v-1853.2zm3.0696 0-2e-5 1853.2h1.5343v-1853.2zm3.069 0v1853.2h1.5348v-1853.2zm3.069 0 5.4e-4 1853.2h1.5342l-1e-5 -1853.2zm3.0696 0 1e-5 1853.2h1.5348l-1e-5 -1853.2zm3.0691 0-1e-5 1853.2h1.5348l1e-5 -1853.2zm3.0696 0-1e-5 1853.2h1.5342v-1853.2zm3.069 0 1e-5 1853.2h1.5348v-1853.2zm3.069 0 5.4e-4 1853.2h1.5343l-2e-5 -1853.2zm3.0696 0 1e-5 1853.2h1.5348v-1853.2zm3.0691 0v1853.2h1.5348l1e-5 -1853.2zm3.0696 0v1853.2h1.5342v-1853.2zm3.069 0v1853.2h1.5348l-1e-5 -1853.2zm3.069 0 5.4e-4 1853.2h1.5343l-3e-5 -1853.2zm3.0696 0 1e-5 1853.2h1.5348l-1e-5 -1853.2zm3.0691 0v1853.2h1.5348v-1853.2zm3.0696 0-1e-5 1853.2h1.5343l-1e-5 -1853.2zm3.069 0v1853.2h1.5348l-1e-5 -1853.2zm3.0696 0 1e-5 1853.2h1.5343l1e-5 -1853.2zm3.0691 0-1e-5 1853.2h1.5348l-1e-5 -1853.2zm3.069 0 1e-5 1853.2h1.5348v-1853.2zm3.0696 0v1853.2h1.5348l-5.5e-4 -1853.2zm3.069 0 1e-5 1853.2h1.5348v-1853.2zm3.0696 0 1e-5 1853.2h1.5343l1e-5 -1853.2zm3.0691 0v1853.2h1.5348l2e-5 -1853.2zm3.069 0v1853.2h1.5348l-1e-5 -1853.2zm3.0696 0v1853.2h1.5348v-1853.2zm3.069 0 1e-5 1853.2h1.5348l-1e-5 -1853.2zm3.0696 0 1e-5 1853.2h1.5343v-1853.2zm3.0691 0-1e-5 1853.2h1.5348v-1853.2zm3.069 0v1853.2h1.5348v-1853.2zm3.0696 0v1853.2h1.5343l1e-5 -1853.2zm3.069 0 3e-5 1853.2h1.5348l-1e-5 -1853.2zm3.0691 0-1e-5 1853.2h1.5348v-1853.2zm3.0696 0v1853.2h1.5348v-1853.2zm3.069 0 1e-5 1853.2h1.5348v-1853.2zm3.0696 0 1e-5 1853.2h1.5343l1e-5 -1853.2zm3.0691 0-1e-5 1853.2h1.5348l2e-5 -1853.2zm3.0696 0-1e-5 1853.2h1.5343v-1853.2zm3.069 0v1853.2h1.5348v-1853.2zm3.069 0 1e-5 1853.2h1.5348l-1e-5 -1853.2zm3.0696 0 1e-5 1853.2h1.5348l-1e-5 -1853.2zm3.0691 0-1e-5 1853.2h1.5348v-1853.2zm3.0696 0-1e-5 1853.2h1.5343l-1e-5 -1853.2zm3.069 0v1853.2h1.5348v-1853.2zm3.069 0 3e-5 1853.2h1.5348l-1e-5 -1853.2zm3.0696 0 1e-5 1853.2h1.5348l-5.3e-4 -1853.2zm3.0691 0v1853.2h1.5348v-1853.2zm3.069 0 5.4e-4 1853.2h1.5343v-1853.2zm3.0696 0 1e-5 1853.2h1.5348v-1853.2zm3.069 0 1e-5 1853.2h1.5348l-2e-5 -1853.2zm3.0696 0 1e-5 1853.2h1.5343v-1853.2zm3.0691 0v1853.2h1.5348l1e-5 -1853.2zm3.069 0 1e-5 1853.2h1.5348l-1e-5 -1853.2zm3.0696 0v1853.2h1.5348l-1e-5 -1853.2zm3.0691 0-1e-5 1853.2h1.5348v-1853.2zm3.0696 0-1e-5 1853.2h1.5343v-1853.2zm3.069 0v1853.2h1.5348v-1853.2zm3.069 0 2e-5 1853.2h1.5348l-1e-5 -1853.2zm3.0696 0 1e-5 1853.2h1.5348l-5.3e-4 -1853.2zm3.0691 0-1e-5 1853.2h1.5348l2e-5 -1853.2zm3.069 0 5.4e-4 1853.2h1.5343v-1853.2zm3.0696 0 1e-5 1853.2h1.5348v-1853.2zm3.069 0 5.5e-4 1853.2h1.5343l-1e-5 -1853.2zm3.0696 0 1e-5 1853.2h1.5343v-1853.2zm3.0691 0v1853.2h1.5348l1e-5 -1853.2zm3.0696 0v1853.2h1.5343l-1e-5 -1853.2zm3.069 0v1853.2h1.5348l-1e-5 -1853.2zm3.0691 0-1e-5 1853.2h1.5348l2e-5 -1853.2zm3.0696 0 1e-5 1853.2h1.5348l-1e-5 -1853.2zm3.0691 0v1853.2h1.5348v-1853.2zm3.0696 0v1853.2h1.5342l-1e-5 -1853.2zm3.069 0 1e-5 1853.2h1.5348l-1e-5 -1853.2zm3.0691 0-1e-5 1853.2h1.5348l2e-5 -1853.2zm3.0696 0-2e-5 1853.2h1.5348l-5.3e-4 -1853.2zm3.069 0v1853.2h1.5348v-1853.2zm3.069 0 5.5e-4 1853.2h1.5343l-1e-5 -1853.2zm3.0696 0 1e-5 1853.2h1.5348v-1853.2zm3.0691 0 5.3e-4 1853.2h1.5343l1e-5 -1853.2zm3.0696 0v1853.2h1.5343v-1853.2zm3.069 0v1853.2h1.5348l-1e-5 -1853.2zm3.0696 0v1853.2h1.5343l-3e-5 -1853.2zm3.069 0 1e-5 1853.2h1.5348l-1e-5 -1853.2zm3.0691 0v1853.2h1.5348v-1853.2zm3.0696 0-2e-5 1853.2h1.5348v-1853.2zm3.069 0v1853.2h1.5348l-1e-5 -1853.2zm3.0696 0 1e-5 1853.2h1.5342l2e-5 -1853.2zm3.069 0 2e-5 1853.2h1.5348l-1e-5 -1853.2zm3.0691 0v1853.2h1.5348v-1853.2zm3.0696 0v1853.2h1.5348l1e-5 -1853.2zm3.069 0 2e-5 1853.2h1.5348l-1e-5 -1853.2zm3.0691 0 5.4e-4 1853.2h1.5342l1e-5 -1853.2zm3.0696 0v1853.2h1.5348l1e-5 -1853.2zm3.069 0 5.4e-4 1853.2h1.5342v-1853.2zm3.0696 0-2e-5 1853.2h1.5343l-3e-5 -1853.2zm3.069 0 2e-5 1853.2h1.5348l-2e-5 -1853.2zm3.0696 0 1e-5 1853.2h1.5343v-1853.2zm3.0691 0-2e-5 1853.2h1.5348v-1853.2zm3.069 0-1e-5 1853.2h1.5348v-1853.2zm3.0696 0-1e-5 1853.2h1.5348l1e-5 -1853.2zm3.069 0 2e-5 1853.2h1.5348l-2e-5 -1853.2zm3.0696 0 2e-5 1853.2h1.5342l1e-5 -1853.2zm3.0691 0v1853.2h1.5348l1e-5 -1853.2zm3.069 0 2e-5 1853.2h1.5348l1e-5 -1853.2zm3.0696 0v1853.2h1.5348l2e-5 -1853.2zm3.0691 0v1853.2h1.5348l1e-5 -1853.2zm3.0696 0 2e-5 1853.2h1.5342v-1853.2zm3.0691 0v1853.2h1.5348v-1853.2zm3.0696 0v1853.2h1.5343l-1e-4 -1853.2zm3.069 0 1e-4 1853.2h1.5347l-5e-4 -1853.2zm3.0691 0v1853.2h1.5348v-1853.2zm3.0696 0v1853.2h1.5342v-1853.2zm3.069 0v1853.2h1.5348v-1853.2zm3.0691 0v1853.2h1.5348v-1853.2zm3.0696 0v1853.2h1.5348v-1853.2zm3.069 0v1853.2h1.5349v-1853.2zm3.0696 0v1853.2h1.5342v-1853.2zm3.069 0v1853.2h1.5348v-1853.2zm3.0691 0v1853.2h1.5348v-1853.2zm3.0696 0v1853.2h1.5349l-2e-4 -1853.2zm3.0691 0v1853.2h1.5347v-1853.2zm3.0695 0v1853.2h1.5343v-1853.2zm3.0691 0v1853.2h1.5348v-1853.2zm3.0696 0v1853.2h1.5343v-1853.2zm3.069 0v1853.2h1.5348l-6e-4 -1853.2zm3.0691 0v1853.2h1.5348v-1853.2zm3.0696 0v1853.2h1.5348l-6e-4 -1853.2zm3.069 0 1e-4 1853.2h1.5348v-1853.2zm3.0691 0v1853.2h1.5347v-1853.2zm3.0696 0-1e-4 1853.2h1.5349v-1853.2zm3.069 0v1853.2h1.5348v-1853.2zm3.0695 0v1853.2h1.5349l-5e-4 -1853.2zm3.0691 0v1853.2h1.5348v-1853.2zm3.0691 0v1853.2h1.5348v-1853.2zm3.0696 0v1853.2h1.5348v-1853.2zm3.0691 0v1853.2h1.5347v-1853.2zm3.0691 0 4e-4 1853.2h1.5343l-1e-4 -1853.2zm3.0695 0v1853.2h1.5348v-1853.2zm3.069 0 6e-4 1853.2h1.5342l1e-4 -1853.2zm3.0697 0v1853.2h1.5347v-1853.2zm3.0689 0v1853.2h1.5348v-1853.2zm3.0697 0-1e-4 1853.2h1.5349v-1853.2zm3.069 0v1853.2h1.5348v-1853.2zm3.0691 0v1853.2h1.5347v-1853.2zm3.0695 0v1853.2h1.5348v-1853.2zm3.0691 0v1853.2h1.5348v-1853.2zm3.0696 0v1853.2h1.5347l-4e-4 -1853.2zm3.0691 0v1853.2h1.5347v-1853.2zm3.0689 0v1853.2h1.5349v-1853.2zm3.0697 0v1853.2h1.5348v-1853.2zm3.069 0 1e-4 1853.2h1.5348v-1853.2zm3.0691 0 5e-4 1853.2h1.5342v-1853.2zm3.0695 0v1853.2h1.5349v-1853.2zm3.0691 0 6e-4 1853.2h1.5342v-1853.2zm3.0696 0v1853.2h1.5347v-1853.2zm3.0691 0v1853.2h1.5347v-1853.2zm3.0695 0v1853.2h1.5349l-1e-4 -1853.2zm3.0691 0v1853.2h1.5348v-1853.2zm3.0691 0v1853.2h1.5348v-1853.2zm3.0695 0v1853.2h1.5348v-1853.2zm3.0691 0v1853.2h1.5348v-1853.2zm3.0696 0v1853.2h1.5348l-6e-4 -1853.2zm3.0691 0v1853.2h1.5347v-1853.2zm3.0689 0v1853.2h1.5348v-1853.2zm3.0696 0 1e-4 1853.2h1.5348v-1853.2zm3.0691 0v1853.2h1.5348v-1853.2zm3.0691 0 6e-4 1853.2h1.5342v-1853.2zm3.0695 0v1853.2h1.5348v-1853.2zm3.0691 0 5e-4 1853.2h1.5343v-1853.2zm3.0696 0v1853.2h1.5348v-1853.2zm3.0691 0v1853.2h1.5347v-1853.2zm3.0695 0v1853.2h1.5348v-1853.2zm3.0691 0v1853.2h1.5348v-1853.2zm3.0691 0-1e-4 1853.2h1.5349l-1e-4 -1853.2zm3.0696 0v1853.2h1.5347v-1853.2zm3.0689 0v1853.2h1.5348l1e-4 -1853.2zm3.0697 0v1853.2h1.5348l-6e-4 -1853.2zm3.069 0v1853.2h1.5347v-1853.2zm3.0691 0v1853.2h1.5347v-1853.2zm3.0695 0v1853.2h1.5348l1e-4 -1853.2zm3.0691 0v1853.2h1.5348v-1853.2zm3.0696 0v1853.2h1.5343v-1853.2zm3.069 0v1853.2h1.5348v-1853.2zm3.0696 0v1853.2h1.5343v-1853.2zm3.0691 0v1853.2h1.5348v-1853.2zm3.0691 0-1e-4 1853.2h1.5349v-1853.2zm3.0695 0v1853.2h1.5348v-1853.2zm3.069 0 1e-4 1853.2h1.5348v-1853.2zm3.0691 0v1853.2h1.5348v-1853.2zm3.0696 0v1853.2h1.5348v-1853.2zm3.069 0v1853.2h1.5348v-1853.2zm3.0696 0v1853.2h1.5348l1e-4 -1853.2zm3.0691 0v1853.2h1.5348v-1853.2zm3.0691 0v1853.2h1.5348v-1853.2zm3.0695 0v1853.2h1.5348v-1853.2zm3.0691 0v1853.2h1.5348v-1853.2zm3.0696 0v1853.2h1.5343v-1853.2zm3.0691 0v1853.2h1.5347v-1853.2zm3.0695 0v1853.2h1.5342v-1853.2zm3.0691 0v1853.2h1.5348v-1853.2zm3.069 0v1853.2h1.5349l-1e-4 -1853.2zm3.0695 0 2e-4 1853.2h1.5347v-1853.2zm3.0691 0v1853.2h1.5348v-1853.2zm3.0691 0v1853.2h1.5348v-1853.2zm3.0696 0v1853.2h1.5347v-1853.2zm3.0691 0v1853.2h1.5347v-1853.2zm3.0695 0v1853.2h1.5348v-1853.2zm3.0691 0v1853.2h1.5348v-1853.2zm3.069 0v1853.2h1.5349v-1853.2zm3.0696 0v1853.2h1.5348v-1853.2zm3.0691 0-1e-4 1853.2h1.5349l-1e-4 -1853.2zm3.0696 0v1853.2h1.5342v-1853.2zm3.069 0v1853.2h1.5349v-1853.2zm3.0696 0v1853.2h1.5342v-1853.2zm3.069 0v1853.2h1.5348v-1853.2zm3.0691 0v1853.2h1.5348v-1853.2zm3.0696 0v1853.2h1.5347l1e-4 -1853.2zm3.069 0v1853.2h1.5348v-1853.2zm3.0691 0 5e-4 1853.2h1.5343v-1853.2zm3.0696 0v1853.2h1.5348v-1853.2zm3.0691 0v1853.2h1.5348v-1853.2zm3.0695 0v1853.2h1.5348v-1853.2zm3.0691 0-1e-4 1853.2h1.5349v-1853.2zm3.069 0v1853.2h1.5348v-1853.2zm3.0695 0 2e-4 1853.2h1.5347v-1853.2zm3.0691 0v1853.2h1.5348v-1853.2zm3.0697 0-1e-4 1853.2h1.5349l-6e-4 -1853.2zm3.069 0v1853.2h1.5348v-1853.2zm3.0691 0v1853.2h1.5347v-1853.2zm3.0695 0v1853.2h1.5348v-1853.2zm3.0691 0v1853.2h1.5348v-1853.2zm3.069 0 6e-4 1853.2h1.5343v-1853.2zm3.0697 0v1853.2h1.5347v-1853.2zm3.0689 0 6e-4 1853.2h1.5343v-1853.2zm3.0697 0v1853.2h1.5348v-1853.2zm3.069 0v1853.2h1.5348v-1853.2zm3.0696 0v1853.2h1.5348v-1853.2zm3.069 0v1853.2h1.5349l-1e-4 -1853.2zm3.0691 0v1853.2h1.5348v-1853.2zm3.0696 0v1853.2h1.5347v-1853.2zm3.0691 0v1853.2h1.5347v-1853.2zm3.0695 0v1853.2h1.5348l-5e-4 -1853.2zm3.0691 0v1853.2h1.5348v-1853.2zm3.0691 0v1853.2h1.5348v-1853.2zm3.0695 0v1853.2h1.5348v-1853.2zm3.069 0v1853.2h1.5349v-1853.2zm3.0691 0 6e-4 1853.2h1.5342v-1853.2zm3.0697 0v1853.2h1.5348l-2e-4 -1853.2zm3.069 0 5e-4 1853.2h1.5342v-1853.2zm3.0695 0v1853.2h1.5349v-1853.2zm3.0691 0v1853.2h1.5348v-1853.2zm3.0695 0 2e-4 1853.2h1.5346v-1853.2zm3.0691 0v1853.2h1.5348v-1853.2zm3.0691 0v1853.2h1.5348v-1853.2zm3.0696 0v1853.2h1.5348v-1853.2zm3.0691 0v1853.2h1.5347v-1853.2zm3.0695 0v1853.2h1.5348l-5e-4 -1853.2zm3.0691 0v1853.2h1.5348v-1853.2zm3.069 0v1853.2h1.5348v-1853.2zm3.0697 0v1853.2h1.5347v-1853.2zm3.0689 0v1853.2h1.5348v-1853.2zm3.0696 0 1e-4 1853.2h1.5342v-1853.2zm3.0691 0v1853.2h1.5348v-1853.2zm3.0691 0 4e-4 1853.2h1.5343v-1853.2zm3.0695 0v1853.2h1.5348v-1853.2zm3.0691 0v1853.2h1.5348v-1853.2zm3.0696 0v1853.2h1.5347v-1853.2zm3.0691 0v1853.2h1.5347v-1853.2zm3.0689 0 1e-4 1853.2h1.5348v-1853.2zm3.0697 0v1853.2h1.5348v-1853.2zm3.0691 0-1e-4 1853.2h1.5349v-1853.2zm3.0695 0v1853.2h1.5348l-6e-4 -1853.2zm3.069 0v1853.2h1.5348l1e-4 -1853.2zm3.0691 0v1853.2h1.5348v-1853.2zm3.0696 0v1853.2h1.5348l-1e-4 -1853.2zm3.069 0v1853.2h1.5348v-1853.2zm3.0696 0v1853.2h1.5343v-1853.2zm3.0691 0v1853.2h1.5348v-1853.2zm3.0695 0v1853.2h1.5344v-1853.2zm3.0691 0v1853.2h1.5348v-1853.2zm3.0691 0v1853.2h1.5348v-1853.2zm3.0696 0v1853.2h1.5348v-1853.2zm3.069 0v1853.2h1.5348v-1853.2zm3.069 0v1853.2h1.5348v-1853.2zm3.0697 0v1853.2h1.5348v-1853.2zm3.069 0v1853.2h1.5348v-1853.2zm3.0695 0v1853.2h1.5349v-1853.2zm3.0691 0v1853.2h1.5348v-1853.2zm3.0691 0v1853.2h1.5348v-1853.2zm3.0696 0v1853.2h1.5347v-1853.2zm3.0691 0v1853.2h1.5347v-1853.2zm3.0695 0v1853.2h1.5343l-1e-4 -1853.2zm3.0691 0v1853.2h1.5348v-1853.2zm3.0696 0v1853.2h1.5343v-1853.2zm3.0691 0v1853.2h1.5347v-1853.2zm3.0689 0v1853.2h1.5348v-1853.2zm3.0697 0v1853.2h1.5348v-1853.2zm3.069 0v1853.2h1.5349l-2e-4 -1853.2zm3.0691 0 5e-4 1853.2h1.5342v-1853.2zm3.0695 0v1853.2h1.5348v-1853.2zm3.0691 0v1853.2h1.5348v-1853.2zm3.0696 0v1853.2h1.5347v-1853.2zm3.069 0v1853.2h1.5348v-1853.2zm3.0691 0-1e-4 1853.2h1.5349v-1853.2zm3.0696 0v1853.2h1.5348v-1853.2zm3.069 0 1e-4 1853.2h1.5348v-1853.2z"
       opacity=".02"
       stroke-width=".38366"
       id="path16" />
  </g>
</svg>
