<?xml version="1.0" encoding="UTF-8" standalone="no"?>
<svg width="64" height="64" version="1.1" viewBox="0 0 64 64" id="svg51" sodipodi:docname="keepassxc.svg" xml:space="preserve" inkscape:version="1.2.1 (9c6d41e410, 2022-07-14)" xmlns:inkscape="http://www.inkscape.org/namespaces/inkscape" xmlns:sodipodi="http://sodipodi.sourceforge.net/DTD/sodipodi-0.dtd" xmlns:xlink="http://www.w3.org/1999/xlink" xmlns="http://www.w3.org/2000/svg" xmlns:svg="http://www.w3.org/2000/svg"><sodipodi:namedview id="namedview53" pagecolor="#ffffff" bordercolor="#000000" borderopacity="0.25" inkscape:showpageshadow="2" inkscape:pageopacity="0.0" inkscape:pagecheckerboard="0" inkscape:deskcolor="#d1d1d1" showgrid="false" inkscape:zoom="8.0234375" inkscape:cx="25.425511" inkscape:cy="51.910419" inkscape:window-width="1920" inkscape:window-height="1014" inkscape:window-x="0" inkscape:window-y="0" inkscape:window-maximized="1" inkscape:current-layer="svg51"/><defs id="defs29"><filter id="filter1057" x="-0.026999999" y="-0.026999999" width="1.054" height="1.054" color-interpolation-filters="sRGB"><feGaussianBlur stdDeviation="0.61875" id="feGaussianBlur18"/></filter><linearGradient id="linearGradient1053" x1="-127" x2="-72" y1="60" y2="5" gradientTransform="translate(131.5,-0.0542)" gradientUnits="userSpaceOnUse"><stop stop-color="#1d2123" offset="0" id="stop21" style="stop-color:#5ca743;stop-opacity:1;"/><stop stop-color="#33393e" stop-opacity=".99608" offset="1" id="stop23" style="stop-color:#5ca743;stop-opacity:1;"/></linearGradient><filter id="filter951" x="-0.34439878" y="-0.21496595" width="1.6887976" height="1.4299319" color-interpolation-filters="sRGB"><feGaussianBlur stdDeviation="15.306655" id="feGaussianBlur26"/></filter><linearGradient xlink:href="#linearGradient3255" id="linearGradient5199" x1="53.238865" y1="12.753036" x2="53.238865" y2="86.356995" gradientUnits="userSpaceOnUse"/><linearGradient id="linearGradient3255"><stop style="stop-color:#226e23;stop-opacity:1;" offset="0" id="stop3257"/><stop id="stop3267" offset="1" style="stop-color:#63ab3a;stop-opacity:1;"/></linearGradient></defs><rect x="4.4899974" y="4.9553995" width="55" height="55" ry="15" fill="#141414" filter="url(#filter1057)" opacity="0.3" stroke-linecap="round" stroke-width="2.7444" id="rect31"/><rect x="4.5" y="4.9553995" width="55" height="55" ry="15" fill="url(#linearGradient1053)" stroke-linecap="round" stroke-width="2.7444" id="rect33" style="fill:url(#linearGradient1053)"/><circle cx="32" cy="32.000401" r="30.000999" fill-opacity="0" stroke-width="1.5715" id="circle35"/><path style="fill:#ffffff;fill-opacity:1;stroke:#000000;stroke-width:0;stroke-linecap:round;stroke-dasharray:none;stroke-opacity:1;paint-order:fill markers stroke" d="m 30.018622,52.752224 c -1.144791,-0.319134 -1.78642,-0.77437 -2.617293,-1.856963 -1.326555,-1.728452 -1.611877,-4.119663 -1.156979,-9.696335 0.335518,-4.113139 0.206838,-6.227865 -0.463844,-7.622143 -0.206815,-0.429968 -1.037901,-1.509215 -1.846841,-2.398331 -2.346198,-2.578727 -3.304302,-4.886772 -3.304302,-7.959965 0,-6.323244 4.943248,-11.231997 11.310926,-11.231997 3.27194,0 5.973166,1.119348 8.234313,3.412176 2.130704,2.160558 3.20183,4.745962 3.196011,7.714302 -0.0062,3.147379 -0.993888,5.560433 -3.317036,8.103709 -2.703352,2.95951 -2.806651,3.904116 -0.697201,6.375401 1.43011,1.675417 1.386425,2.381728 -0.269723,4.361024 -1.028538,1.229227 -1.078155,2.142336 -0.192312,3.539153 0.69479,1.095568 0.747049,0.908842 -0.958828,3.425954 -0.654354,0.965538 -1.525716,1.96183 -2.092459,2.392466 -1.793155,1.362512 -4.078743,1.928197 -5.824423,1.441549 z m 0.065,-10.282941 v -5.863188 h -0.977199 -0.977196 v 5.863188 5.863185 h 0.977196 0.977199 z m 3.918241,-17.770611 c 1.468852,-0.558123 2.232853,-1.23747 2.905516,-2.58359 0.496291,-0.993165 0.602936,-1.441746 0.602936,-2.536112 0,-4.635841 -4.085691,-7.310726 -8.150629,-5.336183 -1.916222,0.930806 -2.876473,2.610384 -2.86829,5.016945 0.0044,1.334317 0.08445,1.667855 0.674903,2.816593 1.058163,2.058702 2.502713,2.973279 4.723033,2.990259 0.6541,0.0051 1.53472,-0.148359 2.112522,-0.367912 z" id="path1576"/></svg>